<svg viewBox="0 0 320 71" fill="none" preserveAspectRatio="none" xmlns="http://www.w3.org/2000/svg">
<path d="M0 28.4L5.33333 30.7741C10.6667 33.0594 21.3333 37.9406 32 41.4241C42.6667 45.0406 53.3333 47.2594 64 49.7C74.6667 52.1406 85.3333 54.3594 96 48.5241C106.667 42.6 117.333 28.4 128 30.7741C138.667 33.0594 149.333 52.1406 160 53.25C170.667 54.3594 181.333 37.9406 192 31.95C202.667 25.9594 213.333 30.8406 224 33.1259C234.667 35.5 245.333 35.5 256 31.95C266.667 28.4 277.333 21.3 288 20.1241C298.667 18.8594 309.333 23.7406 314.667 26.0259L320 28.4V0H314.667C309.333 0 298.667 0 288 0C277.333 0 266.667 0 256 0C245.333 0 234.667 0 224 0C213.333 0 202.667 0 192 0C181.333 0 170.667 0 160 0C149.333 0 138.667 0 128 0C117.333 0 106.667 0 96 0C85.3333 0 74.6667 0 64 0C53.3333 0 42.6667 0 32 0C21.3333 0 10.6667 0 5.33333 0H0V28.4Z" fill="black"/>
</svg>
