<svg viewBox="0 0 320 70" fill="none" preserveAspectRatio="none" xmlns="http://www.w3.org/2000/svg">
<path d="M0 35.5L4.44444 30.7741C8.88889 25.9594 17.7778 16.6406 26.6667 15.3759C35.5556 14.2 44.4444 21.3 53.3333 26.0259C62.2222 30.8406 71.1111 33.0594 80 40.2259C88.8889 47.2594 97.7778 59.2406 106.667 57.9759C115.556 56.8 124.444 42.6 133.333 31.95C142.222 21.3 151.111 14.2 160 15.3759C168.889 16.6406 177.778 25.9594 186.667 35.5C195.556 45.0406 204.444 54.3594 213.333 50.8759C222.222 47.2594 231.111 30.8406 240 24.85C248.889 18.8594 257.778 23.7406 266.667 24.85C275.556 25.9594 284.444 23.7406 293.333 28.4C302.222 33.0594 311.111 45.0406 315.556 50.8759L320 56.8V0H315.556C311.111 0 302.222 0 293.333 0C284.444 0 275.556 0 266.667 0C257.778 0 248.889 0 240 0C231.111 0 222.222 0 213.333 0C204.444 0 195.556 0 186.667 0C177.778 0 168.889 0 160 0C151.111 0 142.222 0 133.333 0C124.444 0 115.556 0 106.667 0C97.7778 0 88.8889 0 80 0C71.1111 0 62.2222 0 53.3333 0C44.4444 0 35.5556 0 26.6667 0C17.7778 0 8.88889 0 4.44444 0H0V35.5Z" fill="#0384FC"/>
</svg>
