<svg viewBox="0 0 320 71" fill="none" preserveAspectRatio="none" xmlns="http://www.w3.org/2000/svg">
<path d="M0 35.5L5.33333 39.05C10.6667 42.6 21.3333 49.7 32 46.15C42.6667 42.6 53.3333 28.4 64 26.0259C74.6667 23.7406 85.3333 33.0594 96 34.3241C106.667 35.5 117.333 28.4 128 26.0259C138.667 23.7406 149.333 25.9594 160 34.3241C170.667 42.6 181.333 56.8 192 52.0741C202.667 47.2594 213.333 23.7406 224 15.3759C234.667 7.1 245.333 14.2 256 16.5741C266.667 18.8594 277.333 16.6406 288 17.75C298.667 18.8594 309.333 23.7406 314.667 26.0259L320 28.4V0H314.667C309.333 0 298.667 0 288 0C277.333 0 266.667 0 256 0C245.333 0 234.667 0 224 0C213.333 0 202.667 0 192 0C181.333 0 170.667 0 160 0C149.333 0 138.667 0 128 0C117.333 0 106.667 0 96 0C85.3333 0 74.6667 0 64 0C53.3333 0 42.6667 0 32 0C21.3333 0 10.6667 0 5.33333 0H0V35.5Z" fill="white"/>
</svg>
