<svg width="70" height="12" viewBox="0 0 70 12" fill="none" xmlns="http://www.w3.org/2000/svg">
<path d="M0.497159 2.59304V0.818182H8.85938V2.59304H5.74219V11H3.61435V2.59304H0.497159ZM9.63991 0.818182H12.0511L14.3729 5.20312H14.4723L16.794 0.818182H19.2053L15.4915 7.40057V11H13.3537V7.40057L9.63991 0.818182ZM20.381 11V0.818182H24.3981C25.1703 0.818182 25.8282 0.965672 26.3718 1.26065C26.9154 1.55232 27.3297 1.95833 27.6147 2.47869C27.9031 2.99574 28.0472 3.59233 28.0472 4.26847C28.0472 4.9446 27.9014 5.54119 27.6097 6.05824C27.3181 6.57528 26.8955 6.97798 26.342 7.26634C25.7918 7.55469 25.1256 7.69886 24.3434 7.69886H21.783V5.97372H23.9954C24.4097 5.97372 24.7511 5.90246 25.0195 5.75994C25.2913 5.61411 25.4935 5.41359 25.6261 5.15838C25.762 4.89986 25.8299 4.60322 25.8299 4.26847C25.8299 3.9304 25.762 3.63542 25.6261 3.38352C25.4935 3.12831 25.2913 2.93111 25.0195 2.7919C24.7478 2.64938 24.4031 2.57812 23.9854 2.57812H22.5337V11H20.381ZM29.4455 11V0.818182H36.3063V2.59304H31.5982V5.01918H35.9533V6.79403H31.5982V9.22514H36.3262V11H29.4455ZM47.3743 5.90909C47.3743 7.01941 47.1638 7.96402 46.7429 8.7429C46.3253 9.52178 45.7552 10.1167 45.0327 10.5277C44.3134 10.9354 43.5047 11.1392 42.6065 11.1392C41.7017 11.1392 40.8897 10.9337 40.1705 10.5227C39.4512 10.1117 38.8828 9.51681 38.4652 8.73793C38.0476 7.95904 37.8388 7.0161 37.8388 5.90909C37.8388 4.79877 38.0476 3.85417 38.4652 3.07528C38.8828 2.2964 39.4512 1.70312 40.1705 1.29545C40.8897 0.884469 41.7017 0.678977 42.6065 0.678977C43.5047 0.678977 44.3134 0.884469 45.0327 1.29545C45.7552 1.70312 46.3253 2.2964 46.7429 3.07528C47.1638 3.85417 47.3743 4.79877 47.3743 5.90909ZM45.1918 5.90909C45.1918 5.18987 45.084 4.58333 44.8686 4.08949C44.6565 3.59564 44.3565 3.22112 43.9688 2.96591C43.581 2.7107 43.1269 2.5831 42.6065 2.5831C42.0862 2.5831 41.6321 2.7107 41.2443 2.96591C40.8565 3.22112 40.5549 3.59564 40.3395 4.08949C40.1274 4.58333 40.0213 5.18987 40.0213 5.90909C40.0213 6.62831 40.1274 7.23485 40.3395 7.72869C40.5549 8.22254 40.8565 8.59706 41.2443 8.85227C41.6321 9.10748 42.0862 9.23509 42.6065 9.23509C43.1269 9.23509 43.581 9.10748 43.9688 8.85227C44.3565 8.59706 44.6565 8.22254 44.8686 7.72869C45.084 7.23485 45.1918 6.62831 45.1918 5.90909ZM48.9689 11V0.818182H52.986C53.7549 0.818182 54.4112 0.955729 54.9547 1.23082C55.5016 1.5026 55.9176 1.88873 56.2026 2.3892C56.4909 2.88636 56.6351 3.47135 56.6351 4.14418C56.6351 4.82031 56.4893 5.40199 56.1976 5.8892C55.906 6.37311 55.4834 6.74432 54.9299 7.00284C54.3797 7.26136 53.7135 7.39062 52.9313 7.39062H50.2417V5.66051H52.5833C52.9943 5.66051 53.3356 5.60417 53.6074 5.49148C53.8792 5.37879 54.0814 5.20975 54.214 4.98438C54.3498 4.759 54.4178 4.47893 54.4178 4.14418C54.4178 3.80611 54.3498 3.52107 54.214 3.28906C54.0814 3.05705 53.8775 2.88139 53.6025 2.76207C53.3307 2.63944 52.9876 2.57812 52.5733 2.57812H51.1216V11H48.9689ZM54.4675 6.36648L56.998 11H54.6216L52.1458 6.36648H54.4675ZM58.1564 0.818182H60.8113L63.6152 7.65909H63.7346L66.5385 0.818182H69.1934V11H67.1053V4.37287H67.0208L64.3858 10.9503H62.964L60.329 4.34801H60.2445V11H58.1564V0.818182Z" fill="black"/>
</svg>
